<?xml version="1.0" standalone="no"?>
<!DOCTYPE svg PUBLIC "-//W3C//DTD SVG 20010904//EN"
 "http://www.w3.org/TR/2001/REC-SVG-20010904/DTD/svg10.dtd">
<svg version="1.0" xmlns="http://www.w3.org/2000/svg"
 width="441.000000pt" height="441.000000pt" viewBox="0 0 441.000000 441.000000"
 preserveAspectRatio="xMidYMid meet">
<metadata>
Created by potrace 1.14, written by Peter Selinger 2001-2017
</metadata>
<g transform="translate(0.000000,441.000000) scale(0.100000,-0.100000)"
fill="#000000" stroke="none">
<path d="M3225 3239 c-178 -25 -311 -79 -455 -185 -33 -24 -60 -51 -60 -59 0
-12 4 -13 19 -5 11 5 25 16 33 23 22 22 130 91 179 115 57 27 121 50 179 63
25 6 54 13 65 15 11 3 65 7 121 9 299 10 566 -119 754 -365 19 -25 36 -47 38
-49 1 -3 7 0 12 5 13 13 -66 119 -137 186 -106 99 -275 190 -425 227 -90 23
-238 32 -323 20z"/>
<path d="M2585 2954 c-144 -29 -361 -142 -489 -254 -330 -289 -462 -641 -335
-895 32 -64 114 -147 177 -179 203 -103 459 -57 667 119 102 87 197 216 365
496 153 255 262 404 301 409 33 5 79 -1 79 -10 0 -5 -19 -40 -43 -77 -205
-322 -291 -509 -304 -667 -5 -71 -4 -75 21 -101 47 -47 80 -34 271 106 50 36
107 75 128 88 20 12 37 27 37 33 0 13 -52 -19 -205 -127 -177 -125 -184 -128
-209 -93 -46 65 64 345 266 678 102 169 86 155 160 140 35 -7 73 -14 86 -16
12 -2 34 -6 49 -9 122 -21 313 -24 380 -6 46 12 92 45 81 57 -5 4 -16 0 -26
-9 -55 -50 -297 -53 -542 -5 -87 16 -84 13 -50 63 30 43 34 75 11 75 -6 0 -29
-25 -52 -56 -34 -44 -47 -54 -63 -50 -12 3 -27 6 -34 6 -6 0 -11 5 -10 12 2 9
-49 12 -217 12 -197 0 -226 -2 -275 -21 -40 -14 -62 -18 -79 -11 -105 39 -374
-137 -502 -328 -96 -144 -83 -274 28 -274 16 0 38 7 49 15 18 14 16 15 -21 9
-109 -16 -105 121 9 281 98 137 320 293 403 283 26 -3 28 -6 25 -43 -5 -49
-13 -64 -119 -238 -101 -164 -145 -263 -141 -315 3 -34 6 -37 36 -40 39 -4 88
25 167 97 69 64 186 173 205 191 84 80 121 111 108 90 -8 -14 -48 -81 -87
-150 -238 -410 -394 -568 -621 -626 -211 -54 -407 41 -481 233 -28 73 -31 226
-6 319 52 198 227 435 425 577 218 155 461 234 562 182 39 -20 62 -65 54 -104
-5 -24 -2 -32 11 -37 22 -9 45 19 45 54 0 95 -136 149 -295 116z m604 -289 c2
-3 -13 -22 -35 -42 -22 -21 -55 -58 -74 -83 -18 -25 -49 -60 -69 -79 -332
-314 -468 -431 -504 -431 -13 0 -2 61 22 114 11 27 66 124 122 217 56 93 106
190 113 216 11 44 16 49 60 66 26 9 80 20 119 23 40 4 73 7 74 8 5 4 168 -5
172 -9z"/>
<path d="M1007 2819 c-32 -19 -122 -114 -179 -189 -31 -41 -100 -147 -153
-235 -156 -256 -228 -355 -350 -483 l-60 -63 -100 -2 c-79 -2 -106 -6 -127
-21 -36 -24 -37 -58 -3 -76 44 -24 101 -15 184 26 41 22 79 38 83 37 47 -16
201 -43 245 -45 162 -4 347 56 431 140 27 27 34 27 50 1 15 -24 53 -20 86 9
18 16 19 16 13 0 -34 -95 -39 -191 -11 -239 11 -18 26 -35 34 -37 13 -5 13 -3
0 13 -26 31 -19 158 12 233 33 79 81 159 125 207 37 41 41 55 16 55 -24 0 -85
-58 -154 -145 -31 -38 -64 -77 -74 -85 -17 -14 -18 -13 -12 29 3 25 19 71 36
103 29 58 27 75 -8 63 -19 -6 -71 -92 -71 -119 0 -19 -97 -98 -160 -130 -55
-29 -130 -55 -185 -64 -72 -13 -218 -6 -293 12 l-72 18 73 77 c90 94 184 229
293 417 90 155 136 226 208 318 50 65 53 66 31 13 -24 -57 0 -52 30 6 15 28
43 75 61 103 43 65 44 78 1 53z m-792 -1005 c-35 -28 -99 -54 -132 -54 -27 0
-33 4 -33 20 0 29 51 49 125 49 56 0 59 -1 40 -15z"/>
<path d="M4105 2765 c-12 -14 -22 -34 -20 -43 2 -9 4 -22 4 -29 2 -21 44 -53
71 -53 68 0 96 81 44 128 -33 29 -69 28 -99 -3z m89 -26 c15 -22 11 -48 -8
-61 -22 -15 -53 -8 -65 16 -28 52 39 93 73 45z"/>
<path d="M4195 2610 c-3 -5 1 -33 10 -62 37 -123 39 -319 5 -448 -29 -113 -89
-240 -153 -325 -44 -57 -163 -175 -171 -168 -3 4 -6 2 -6 -4 0 -14 -83 -66
-171 -108 -64 -30 -116 -46 -221 -71 -31 -8 -245 -13 -268 -7 -11 3 -21 18
-24 38 -4 19 -14 36 -24 39 -34 10 -72 14 -73 8 0 -4 -1 -29 -2 -57 l-2 -50
55 -2 c30 -1 100 -4 154 -6 166 -6 345 37 479 115 26 15 52 28 57 28 6 0 10 4
10 8 0 4 15 16 33 27 37 22 152 134 190 186 52 70 132 227 154 304 37 126 44
312 18 438 -23 113 -35 141 -50 117z m-1022 -1156 c4 -24 -15 -44 -42 -44 -11
0 -16 62 -5 72 12 13 42 -5 47 -28z"/>
<path d="M1348 2133 c-36 -23 -52 -63 -42 -105 5 -18 9 -51 9 -73 0 -33 4 -41
21 -43 11 -2 27 4 34 13 8 9 29 15 55 15 50 0 151 30 215 65 56 30 48 32 -17
4 -64 -28 -140 -49 -181 -49 l-33 0 22 31 c40 57 43 126 5 151 -19 13 -60 8
-88 -9z m75 -35 c20 -31 -26 -140 -52 -123 -9 5 -6 14 10 31 17 19 20 27 11
36 -9 9 -17 6 -36 -11 -24 -23 -24 -23 -31 -2 -18 57 68 118 98 69z m-63 -147
c0 -6 -4 -13 -10 -16 -5 -3 -10 1 -10 9 0 9 5 16 10 16 6 0 10 -4 10 -9z"/>
<path d="M766 1498 c-27 -15 -19 -48 14 -59 17 -6 30 -16 30 -21 0 -6 -13 -8
-30 -6 -32 5 -41 -6 -14 -16 29 -11 53 -6 64 13 8 16 6 23 -12 35 -12 9 -28
16 -35 16 -7 0 -13 4 -13 9 0 17 19 22 40 11 16 -8 20 -8 20 3 0 18 -42 27
-64 15z"/>
<path d="M1352 1501 c-18 -11 -20 -111 -3 -111 5 0 11 12 13 28 l3 27 28 -29
c30 -32 51 -28 22 4 -10 11 -13 20 -8 20 18 0 25 33 10 47 -16 16 -50 24 -65
14z m51 -37 c-8 -21 -43 -17 -43 5 0 14 6 17 24 14 16 -3 23 -10 19 -19z"/>
<path d="M1535 1501 c-3 -2 -5 -28 -5 -58 l0 -53 41 0 c25 0 38 4 34 10 -4 6
-12 10 -18 9 -26 -3 -37 2 -37 16 0 9 9 15 25 15 14 0 25 5 25 11 0 5 -10 9
-22 7 -15 -2 -24 3 -26 14 -2 12 2 16 16 13 10 -2 25 1 33 6 8 5 10 9 4 10
-44 4 -67 4 -70 0z"/>
<path d="M1858 1503 c-20 -5 -31 -30 -17 -39 6 -4 4 -13 -7 -25 -26 -28 -3
-49 51 -47 30 2 41 6 35 13 -5 6 -7 21 -3 33 3 13 1 22 -6 22 -6 0 -11 -8 -11
-17 0 -12 -3 -14 -11 -6 -8 8 -8 17 0 31 12 23 -3 41 -31 35z m22 -23 c0 -5
-4 -10 -10 -10 -5 0 -10 5 -10 10 0 6 5 10 10 10 6 0 10 -4 10 -10z m0 -59 c0
-4 -3 -11 -7 -14 -8 -9 -34 13 -28 24 6 9 35 1 35 -10z"/>
<path d="M2169 1502 c-25 -3 -26 -7 -28 -58 0 -30 4 -54 9 -54 6 0 10 9 10 19
0 32 17 33 39 5 23 -30 42 -24 23 6 -7 12 -8 21 -2 25 16 10 11 44 -7 53 -10
4 -30 6 -44 4z m36 -33 c0 -8 -10 -15 -22 -17 -25 -4 -26 -2 -17 21 7 19 39
15 39 -4z"/>
<path d="M2349 1501 c-11 -4 -16 -20 -16 -58 l0 -53 39 0 c21 0 38 5 38 10 0
6 -3 9 -7 9 -27 -4 -50 3 -50 16 0 10 10 15 30 15 17 0 27 3 23 8 -8 7 -13 8
-41 11 -8 0 -12 7 -9 15 3 9 15 13 30 10 13 -2 24 0 24 6 0 5 -3 10 -7 11 -5
0 -15 2 -23 3 -8 2 -22 1 -31 -3z"/>
<path d="M2522 1485 c-21 -26 -19 -67 4 -85 16 -14 66 -9 72 8 3 9 -2 10 -21
3 -29 -11 -47 2 -47 35 0 29 21 44 51 37 18 -4 21 -3 13 6 -21 23 -53 21 -72
-4z"/>
<path d="M2719 1491 c-24 -19 -28 -63 -9 -86 15 -18 64 -20 77 -2 44 55 -15
131 -68 88z m52 -11 c5 0 9 -13 9 -30 0 -34 -29 -57 -48 -38 -23 23 -10 83 15
74 8 -3 19 -6 24 -6z"/>
<path d="M2918 1502 c-14 -3 -17 -13 -14 -55 1 -28 8 -53 14 -55 7 -2 10 5 7
17 -5 28 26 28 43 1 7 -11 17 -20 23 -20 7 0 6 9 -4 23 -13 19 -13 26 -1 42
22 30 -17 58 -68 47z m36 -18 c22 -9 20 -34 -3 -34 -19 0 -35 23 -24 34 8 7 8
7 27 0z"/>
<path d="M933 1445 c1 -34 5 -54 12 -52 5 2 11 9 11 15 1 7 2 17 3 22 0 6 12
10 26 10 20 0 25 -5 25 -25 0 -14 5 -25 10 -25 11 0 12 5 12 45 0 52 -2 65
-11 65 -5 0 -11 -10 -13 -22 -4 -32 -54 -32 -52 0 1 12 -4 22 -11 22 -9 0 -12
-17 -12 -55z"/>
<path d="M1150 1450 c-13 -27 -20 -53 -16 -57 4 -4 11 -1 16 7 13 20 52 22 67
2 23 -29 24 -5 2 47 -13 28 -28 51 -34 51 -6 0 -22 -22 -35 -50z m46 -18 c-10
-10 -29 15 -21 28 6 9 10 8 17 -4 6 -10 7 -20 4 -24z"/>
</g>
</svg>
